# xmcd
#
# Track frame offsets: 
#        150
#        12980
#        35099
#        56826
#        85344
#        104282
#        119413
#        138242
#        159916
#        184962
#        212415
#        232212
#        248748
#        265551
#        298345
#
# Disc length: 4759 seconds
#
# Revision: 1
# Processed by: cddbd v1.5.2PL0 Copyright (c) Steve Scherf et al.
# Submitted via: ExactAudioCopy v1.0b4
#
DISCID=d912950f
DTITLE=Elvin Bishop - Raisin' Hell
DYEAR=1977
DGENRE=Blues Rock, Modern Electric Blues
TTITLE0=Raisin' Hell
TTITLE1=Rock My Soul
TTITLE2=Sure Feels Good
TTITLE3=Calling All Cows
TTITLE4=Juke Joint Jump
TTITLE5=Hey, Hey, Hey
TTITLE6=Joy
TTITLE7=Stealin' Watermelons
TTITLE8=Fooled Around and Fell in Love
TTITLE9=Little Brown Bird
TTITLE10=Yes Sir
TTITLE11=Struttin' My Stuff
TTITLE12=Give it Up
TTITLE13=Travelin' Shoes
TTITLE14=Medley (Let the Good Times Roll, A Change is Gonna Com, Bring
TTITLE14=on Home)
EXTD=
EXTT0=
EXTT1=
EXTT2=
EXTT3=
EXTT4=
EXTT5=
EXTT6=
EXTT7=
EXTT8=
EXTT9=
EXTT10=
EXTT11=
EXTT12=
EXTT13=
EXTT14=
PLAYORDER=
